<svg xmlns="http://www.w3.org/2000/svg" viewBox="0 0 536.94 100.95"><defs><style>.cls-1{fill:#231815;}</style></defs><g id="レイヤー_2" data-name="レイヤー 2"><g id="base"><path id="base-2" data-name="base" class="cls-1" d="M56.86,64.62H86L97.83,7.9l7.28-3.6L85.42,97.69h-4.3a52.54,52.54,0,0,0-4.19-9.36,64.13,64.13,0,0,0-6.14-8.91,65.46,65.46,0,0,0-7.31-7.66A33.35,33.35,0,0,0,56,66.63l-.2.35a72.3,72.3,0,0,1-9.61,16.19A46.09,46.09,0,0,1,34.53,94a41.46,41.46,0,0,1-7.94,3.74,54.44,54.44,0,0,1-9.36,2.43,58.22,58.22,0,0,1-9.88.83A42.91,42.91,0,0,1,0,100.26l2.22-5.48a46.76,46.76,0,0,0,14.07,2.57A29,29,0,0,0,30.85,93.4,33.41,33.41,0,0,0,42.29,82.65q6.32-9.5,11.58-25.86c.6-1.81,1.51-4.86,2.71-9.16s2.3-8.43,3.29-12.41,1.77-7.28,2.32-9.91L64.62,13l.21-1.32,7.83-3.88q-.69,5.54-2.42,13.1t-4,15.6q-2.25,8-4.75,15.71A121.11,121.11,0,0,1,57,64.27ZM85.42,67H61.71a85.27,85.27,0,0,1,10.47,9.88A80.54,80.54,0,0,1,81.05,88.2Zm55.26-10.26-6.51,25.37a28.61,28.61,0,0,0-1,6.52,7,7,0,0,0,.91,3.61,2.6,2.6,0,0,0,2.22,1.52c1.34,0,3.55-1.64,6.65-4.92l1,1-.76.9a62.23,62.23,0,0,1-5.65,5.93,5.72,5.72,0,0,1-3.43,1.7A4.68,4.68,0,0,1,130.18,96a9.11,9.11,0,0,1-1.63-5.38,65.54,65.54,0,0,1,1.66-10.05l.56-2.64a51.18,51.18,0,0,1-6.87,11.44q-7.2,9.16-13.79,9.16a7.56,7.56,0,0,1-6.24-2.85,11.76,11.76,0,0,1-2.29-7.62,29.56,29.56,0,0,1,3.71-13.66,37.61,37.61,0,0,1,9.22-11.75Q120,58,125.22,58q5.47,0,8.18,4l.77-2.64Zm-8,8.87a8,8,0,0,0-2.81-4.12A7.3,7.3,0,0,0,125.36,60q-3,0-6.45,2.8a28.26,28.26,0,0,0-6.24,7.8A45.85,45.85,0,0,0,109,79.32a27.83,27.83,0,0,0-1.49,7.9,9.86,9.86,0,0,0,1.35,5.55,4.37,4.37,0,0,0,3.85,2q3.19,0,6.66-3a35.89,35.89,0,0,0,6.86-8.53,31.83,31.83,0,0,0,3.26-6.38c.79-2.12,1.66-5.08,2.63-8.87ZM161,60.67l-5.27,23.09a28.93,28.93,0,0,0-.83,5.41,6.38,6.38,0,0,0,1.18,4,3.75,3.75,0,0,0,3.12,1.52,5.9,5.9,0,0,0,3.43-1.07,36.23,36.23,0,0,0,4.75-4.47l.83-.84,1,1a43.25,43.25,0,0,1-6.83,7,9.06,9.06,0,0,1-5.37,2,6.81,6.81,0,0,1-5.31-2.19,8.17,8.17,0,0,1-2-5.72,40,40,0,0,1,1-7.62l4.5-22.26h-6.65l.48-2.36h6.66l3.88-18.72L166.34,37l-4.86,21.35h11.24l-.49,2.36Zm25.44,0-5.27,23.09a29.82,29.82,0,0,0-.83,5.41,6.44,6.44,0,0,0,1.18,4,3.77,3.77,0,0,0,3.12,1.52,5.88,5.88,0,0,0,3.43-1.07,35.6,35.6,0,0,0,4.75-4.47l.84-.84,1,1a43.68,43.68,0,0,1-6.83,7,9.06,9.06,0,0,1-5.38,2,6.77,6.77,0,0,1-5.3-2.19,8.17,8.17,0,0,1-2-5.72,40.84,40.84,0,0,1,1-7.62l4.51-22.26H174.1l.49-2.36h6.65l3.89-18.72L191.78,37l-4.85,21.35h11.23l-.48,2.36Zm12.21,23.71A25.88,25.88,0,0,1,202,71.94a29.78,29.78,0,0,1,8.7-10.09A18.36,18.36,0,0,1,221.6,58,12.23,12.23,0,0,1,231,61.81a14.07,14.07,0,0,1,3.57,10,27.37,27.37,0,0,1-3.29,12.9,30,30,0,0,1-8.67,10.23,18.14,18.14,0,0,1-10.85,4,12.23,12.23,0,0,1-9.5-4Q198.65,90.9,198.65,84.38Zm29.67-15.25a11.1,11.1,0,0,0-2-6.87,6.31,6.31,0,0,0-5.24-2.7,9.56,9.56,0,0,0-5.58,1.87,18.28,18.28,0,0,0-4.89,5.48,41.42,41.42,0,0,0-4.12,9.71,35.27,35.27,0,0,0-1.63,9.84q0,5.13,2,7.91a6.67,6.67,0,0,0,5.75,2.77q6,0,10.61-8.39a42.25,42.25,0,0,0,3.75-9.64A40,40,0,0,0,228.32,69.13ZM240.25,78q6-7.2,8-13.45-5.61-3.12-5.61-8.94a7.25,7.25,0,0,1,1.31-4.51,4,4,0,0,1,3.33-1.73,4,4,0,0,1,3.4,1.9,8.57,8.57,0,0,1,1.32,5A17.41,17.41,0,0,1,251.2,61a13.81,13.81,0,0,0,3.4.48,10.14,10.14,0,0,0,7.07-2.5H265l-.48,1a131.8,131.8,0,0,0-8.22,18q-3.23,8.84-3.22,13.21a4.21,4.21,0,0,0,.83,2.67,2.47,2.47,0,0,0,2,1.07q2.84,0,9.15-6l1.11,1.25a49.27,49.27,0,0,1-6,5.34q-3.67,2.91-6.87,2.91A5.32,5.32,0,0,1,249,96.58a7.26,7.26,0,0,1-1.56-4.92c0-3.46,1.34-7.86,4-13.17,1-2,2.22-4.25,3.75-6.8s3.44-5.57,5.75-9.08l.69-1a15.32,15.32,0,0,1-4.4,3,12.59,12.59,0,0,1-4.82.86,10.85,10.85,0,0,1-2.63-.34,42.68,42.68,0,0,1-8.32,14Zm9.5-17.61a19.53,19.53,0,0,0,.28-2.91,7.66,7.66,0,0,0-.8-3.81,2.34,2.34,0,0,0-2-1.39,1.52,1.52,0,0,0-1.21.66,2.53,2.53,0,0,0-.52,1.63Q245.45,57.83,249.75,60.39Zm35.08-3.26-6.1,22.81a36.2,36.2,0,0,0-1.52,9,7.4,7.4,0,0,0,.76,3.6A2.27,2.27,0,0,0,280,94q2.14,0,6.86-5.13l1.11,1-.69.76a67.09,67.09,0,0,1-5.83,6.28A5.51,5.51,0,0,1,278,98.46a4.32,4.32,0,0,1-3.64-2.19,9.37,9.37,0,0,1-1.49-5.44,40.22,40.22,0,0,1,.83-6.59L278,60Zm2-27.18a3.81,3.81,0,0,1,4,4,4,4,0,0,1-1.17,2.92A4.13,4.13,0,0,1,282.75,34a3.87,3.87,0,0,1,1.18-2.84A4,4,0,0,1,286.84,30ZM316,95.89,319.85,89q11.72,6.45,22.74,6.45A32.9,32.9,0,0,0,356,92.74a23.66,23.66,0,0,0,9.57-7.28,16.23,16.23,0,0,0,3.51-10,15.23,15.23,0,0,0-3.19-9.5q-3.19-4.15-11.51-9.64-8.11-5.4-9.88-6.66t-4.62-3.53a13.54,13.54,0,0,1-5.06-10.47q0-10.89,14.15-20.94a50.86,50.86,0,0,1,9-5.13A56.33,56.33,0,0,1,368,6.1a40,40,0,0,1,9.22-1.18q6.3,0,9.91,2.36a7.44,7.44,0,0,1,3.61,6.59q0,5.19-4.37,11.13a46.22,46.22,0,0,1-11.93,10.92l-5.54-3.12a62,62,0,0,0,8.66-6.94,33.13,33.13,0,0,0,5.48-6.76,12,12,0,0,0,1.94-6,4.92,4.92,0,0,0-1-3.18,6.5,6.5,0,0,0-3-2,14.61,14.61,0,0,0-4.85-.69,36.15,36.15,0,0,0-11.62,2.12,55,55,0,0,0-11.68,5.58Q340.64,22.6,340.65,32a9.18,9.18,0,0,0,1.45,5,23,23,0,0,0,5.1,5.24q3.65,2.91,10.64,7.48,5.21,3.4,7.87,5.55a24.57,24.57,0,0,1,4.41,4.51,17.4,17.4,0,0,1,3.88,11,21,21,0,0,1-2.46,9.57,32.94,32.94,0,0,1-7,9.08Q354,99.35,335.31,99.36,323.1,99.36,316,95.89Zm67.05,2.5L401.52,3.54,408.8,0,389.6,84.45a2,2,0,0,0,.28-.62l1.59-3.61a59.33,59.33,0,0,1,10.26-16.08q5.83-6.31,10.75-6.31a5.52,5.52,0,0,1,4.23,1.69,6.4,6.4,0,0,1,1.59,4.55,19.08,19.08,0,0,1-.76,4.5l-.69,2.92-2.15,8.45-.63,2.71A28.75,28.75,0,0,0,413,89a7.22,7.22,0,0,0,.77,3.57,2.26,2.26,0,0,0,2,1.35q2.15,0,6.86-5.13l1,1-.62.76a63.67,63.67,0,0,1-5.86,6.28,5.63,5.63,0,0,1-3.43,1.63,4.4,4.4,0,0,1-3.68-2.29,9.39,9.39,0,0,1-1.52-5.34,41.63,41.63,0,0,1,.9-6.59l2.63-14.7a28.29,28.29,0,0,0,.63-4.85,3,3,0,0,0-.77-2.22,2.79,2.79,0,0,0-2.08-.76c-1.71,0-3.67,1-5.89,3a39.91,39.91,0,0,0-6.69,8.35,74.26,74.26,0,0,0-5.86,11.41,65.92,65.92,0,0,0-3.74,12.44Zm44.51-14A25.9,25.9,0,0,1,431,71.94a29.78,29.78,0,0,1,8.7-10.09A18.35,18.35,0,0,1,450.54,58a12.23,12.23,0,0,1,9.4,3.85,14.07,14.07,0,0,1,3.57,10,27.37,27.37,0,0,1-3.29,12.9,30,30,0,0,1-8.67,10.23,18.14,18.14,0,0,1-10.85,4,12.21,12.21,0,0,1-9.5-4Q427.6,90.9,427.59,84.38Zm29.68-15.25a11,11,0,0,0-2-6.87,6.28,6.28,0,0,0-5.23-2.7,9.56,9.56,0,0,0-5.58,1.87,18.28,18.28,0,0,0-4.89,5.48,41.85,41.85,0,0,0-4.13,9.71,35.59,35.59,0,0,0-1.62,9.84q0,5.13,2,7.91a6.67,6.67,0,0,0,5.75,2.77q6,0,10.61-8.39a41.78,41.78,0,0,0,3.74-9.64A39.55,39.55,0,0,0,457.27,69.13Zm25.17-8.46-5.27,23.09a29.82,29.82,0,0,0-.83,5.41,6.38,6.38,0,0,0,1.18,4,3.75,3.75,0,0,0,3.12,1.52,5.9,5.9,0,0,0,3.43-1.07,36.23,36.23,0,0,0,4.75-4.47l.83-.84,1,1a43.25,43.25,0,0,1-6.83,7,9.06,9.06,0,0,1-5.37,2,6.81,6.81,0,0,1-5.31-2.19,8.21,8.21,0,0,1-2-5.72,40,40,0,0,1,1-7.62l4.5-22.26H470.1l.48-2.36h6.66l3.88-18.72L487.78,37l-4.86,21.35h11.24l-.49,2.36Zm51.31-4-6.52,25.37a29.05,29.05,0,0,0-1,6.52,7,7,0,0,0,.9,3.61,2.6,2.6,0,0,0,2.22,1.52q2,0,6.66-4.92l1,1-.77.9a62.23,62.23,0,0,1-5.65,5.93,5.7,5.7,0,0,1-3.43,1.7A4.69,4.69,0,0,1,523.24,96a9.18,9.18,0,0,1-1.63-5.38,66.07,66.07,0,0,1,1.67-10.05l.55-2.64A51.51,51.51,0,0,1,517,89.37q-7.22,9.16-13.8,9.16a7.58,7.58,0,0,1-6.24-2.85,11.81,11.81,0,0,1-2.29-7.62,29.68,29.68,0,0,1,3.71-13.66,37.76,37.76,0,0,1,9.22-11.75Q513.09,58,518.29,58q5.48,0,8.18,4l.76-2.64Zm-8,8.87a8,8,0,0,0-2.8-4.12A7.33,7.33,0,0,0,518.42,60q-3,0-6.44,2.8a27.9,27.9,0,0,0-6.24,7.8A45.22,45.22,0,0,0,502,79.32a27.49,27.49,0,0,0-1.49,7.9,9.86,9.86,0,0,0,1.35,5.55,4.36,4.36,0,0,0,3.85,2q3.18,0,6.65-3a36.15,36.15,0,0,0,6.87-8.53,32.36,32.36,0,0,0,3.26-6.38q1.17-3.18,2.63-8.87Z"/></g></g></svg>